<?xml version="1.0" encoding="utf-8"?>
<!-- Generator: Adobe Illustrator 23.0.3, SVG Export Plug-In . SVG Version: 6.00 Build 0)  -->
<svg version="1.1" xmlns="http://www.w3.org/2000/svg" xmlns:xlink="http://www.w3.org/1999/xlink" x="0px" y="0px"
	 viewBox="0 0 595 842" style="enable-background:new 0 0 595 842;" xml:space="preserve">
<style type="text/css">
	.st0{fill:none;stroke:#0095DA;stroke-width:2.9999;stroke-linecap:round;stroke-linejoin:round;stroke-miterlimit:2.6131;}
	.st1{fill:none;stroke:#414042;stroke-width:2.9999;stroke-linecap:round;stroke-linejoin:round;stroke-miterlimit:2.6131;}
</style>
<g id="Guides_For_Artboard">
</g>
<g id="Layer_1">
	<g>
		<polyline class="st0" points="113.24,503.64 180.78,503.64 195.14,450.03 204.9,537.41 220.33,476.63 229.02,503.64 
			245.31,393.85 265.68,557.67 278.14,453.78 284.98,501.71 482.76,501.71 		"/>
		<path class="st1" d="M327.52,516.07c-15.47,32.01-47.88,52.35-83.43,52.35c-36.38,0-69.39-21.28-84.4-54.42"/>
		<path class="st1" d="M333.73,489.93c2-7.66,3.02-15.54,3.02-23.45c0-51.18-41.49-92.66-92.66-92.66
			c-51.18,0-92.66,41.49-92.66,92.66c0,7.44,0.9,14.86,2.67,22.09"/>
	</g>
</g>
</svg>
